<?xml version="1.0" encoding="utf-8"?><svg xmlns="http://www.w3.org/2000/svg" xmlns:xlink="http://www.w3.org/1999/xlink"><symbol viewBox="0 0 512 512" id="arrow-rotate" xmlns="http://www.w3.org/2000/svg"><!--! Font Awesome Free 6.0.0 by @fontawesome - https://fontawesome.com License - https://fontawesome.com/license/free (Icons: CC BY 4.0, Fonts: SIL OFL 1.1, Code: MIT License) Copyright 2022 Fonticons, Inc.--><path d="M480 256c0 123.4-100.5 223.9-223.9 223.9-48.86 0-95.19-15.58-134.2-44.86-14.14-10.59-17-30.66-6.391-44.81 10.61-14.09 30.69-16.97 44.8-6.375 27.84 20.91 61 31.94 95.89 31.94C344.3 415.8 416 344.1 416 256S344.33 96.2 256.2 96.2c-50.3.02-97.6 24.1-127.6 63.8H192c17.67 0 32 14.31 32 32s-14.3 32-32 32H48c-17.67 0-32-14.31-32-32V48c0-17.69 14.33-32 32-32s32 14.31 32 32v70.23c42.1-53.65 106.1-86.12 176.1-86.12C379.5 32.11 480 132.6 480 256z"/></symbol><symbol viewBox="0 0 320 512" id="pause" xmlns="http://www.w3.org/2000/svg"><!--! Font Awesome Free 6.0.0 by @fontawesome - https://fontawesome.com License - https://fontawesome.com/license/free (Icons: CC BY 4.0, Fonts: SIL OFL 1.1, Code: MIT License) Copyright 2022 Fonticons, Inc.--><path d="M272 63.1h-32c-26.51 0-48 21.49-48 47.1v288c0 26.51 21.49 48 48 48l32 1.8c26.51 0 48-21.49 48-48V112c0-26.51-21.5-48.9-48-48.9zm-192 0H48c-26.51 0-48 21.49-48 48v288C0 426.5 21.49 448 48 448h32c26.51 0 48-21.49 48-48V112c0-26.51-21.5-48.9-48-48.9z"/></symbol><symbol viewBox="0 0 384 512" id="play" xmlns="http://www.w3.org/2000/svg"><!--! Font Awesome Free 6.0.0 by @fontawesome - https://fontawesome.com License - https://fontawesome.com/license/free (Icons: CC BY 4.0, Fonts: SIL OFL 1.1, Code: MIT License) Copyright 2022 Fonticons, Inc.--><path d="M361 215c14.3 8.8 23 24.3 23 41s-8.7 32.2-23 40.1l-287.97 176c-14.82 9.9-33.37 10.3-48.51 1.8A48.02 48.02 0 010 432V80a48.02 48.02 0 0124.52-41.87 48.019 48.019 0 0148.51.91L361 215z"/></symbol><symbol viewBox="0 0 381.354 381.354" id="timer" xmlns="http://www.w3.org/2000/svg"><path d="M184 317.677c-4.4 0-8 3.6-8 8v4c0 4.4 3.6 8 8 8s8-3.6 8-8v-4c0-4.4-3.6-8-8-8zm-132-132h-4c-4.4 0-8 3.6-8 8s3.6 8 8 8h4c4.4 0 8-3.6 8-8s-3.6-8-8-8zm264 16h4c4.4 0 8-3.6 8-8s-3.6-8-8-8h-4c-4.4 0-8 3.6-8 8s3.6 8 8 8zM93.6 92.077c-3.2-3.2-8-3.2-11.2 0-3.2 3.2-3.2 8 0 11.2l2.8 2.8c1.6 1.6 3.6 2.4 5.6 2.4s4-.8 5.6-2.4c3.2-3.2 3.2-8 0-11.2l-2.8-2.8zm189.2 189.2c-3.2-3.2-8-3.2-11.2 0s-3.2 8 0 11.2l2.8 2.8c1.6 1.6 3.6 2.4 5.6 2.4s4-.8 5.6-2.4c3.2-3.2 3.2-8 0-11.2l-2.8-2.8zm-197.6 0l-2.8 2.8c-3.2 3.2-3.2 8 0 11.2 1.6 1.6 3.6 2.4 5.6 2.4s4-.8 5.6-2.4l2.8-2.8c3.2-3.2 3.2-8 0-11.2s-8-3.2-11.2 0zm189.2-189.2l-2.8 2.8c-3.2 3.2-3.2 8 0 11.2 1.6 1.6 3.6 2.4 5.6 2.4s4-.8 5.6-2.4l2.8-2.8c3.2-3.2 3.2-8 0-11.2-3.2-3.2-8-3.2-11.2 0zm-82.4 62.4v-84.8c0-4.4-3.6-8-8-8s-8 3.6-8 8v84.8c-18.4 3.6-32 20-32 39.2 0 22 18 40 40 40s40-18 40-40c0-19.2-13.6-35.6-32-39.2zm-8 63.2c-13.2 0-24-10.8-24-24s10.8-24 24-24 24 10.8 24 24-10.8 24-24 24z"/><path d="M376 38.077l-28.4-28.4c-4-4-9.2-6-14.8-6-5.2 0-10 2.4-13.6 6l-5.6 5.6c-4 4-6 9.2-6 14.8 0 5.2 2.4 10 6 13.6l8.4 8.4-10 10c-32.8-32.4-78-52.4-128-52.4-101.6 0-184 82.4-184 184s82.4 184 184 184 184-82.4 184-184c0-46-16.8-87.6-44.8-120l10.4-10.4 8.4 8.4c4 4 8.8 6 14 6s10-2 14-6l5.2-5.2c4-3.6 6-8.8 6-14.4.8-5.6-1.6-10.4-5.2-14zm-24 155.6c0 92.8-75.2 168-168 168s-168-75.2-168-168 75.2-168 168-168 168 75.2 168 168zm12.8-138.8l-5.6 5.6c-1.6 1.6-4 1.6-5.6 0l-28.8-28.8c-.8-.8-.8-1.6-1.2-2.4 0-.8 0-2 1.2-2.8l6-6c.8-.8 1.6-.8 2.4-1.2.8 0 2 0 2.8 1.2l28.4 28.4.4.4c.8.4 1.2 1.6 1.2 2.4s-.4 2.4-1.2 3.2z"/></symbol><symbol viewBox="0 0 381.354 381.354" id="timerRed" xmlns="http://www.w3.org/2000/svg"><path d="M184 317.677c-4.4 0-8 3.6-8 8v4c0 4.4 3.6 8 8 8s8-3.6 8-8v-4c0-4.4-3.6-8-8-8zm-132-132h-4c-4.4 0-8 3.6-8 8s3.6 8 8 8h4c4.4 0 8-3.6 8-8s-3.6-8-8-8zm264 16h4c4.4 0 8-3.6 8-8s-3.6-8-8-8h-4c-4.4 0-8 3.6-8 8s3.6 8 8 8zM93.6 92.077c-3.2-3.2-8-3.2-11.2 0-3.2 3.2-3.2 8 0 11.2l2.8 2.8c1.6 1.6 3.6 2.4 5.6 2.4s4-.8 5.6-2.4c3.2-3.2 3.2-8 0-11.2l-2.8-2.8zm189.2 189.2c-3.2-3.2-8-3.2-11.2 0s-3.2 8 0 11.2l2.8 2.8c1.6 1.6 3.6 2.4 5.6 2.4s4-.8 5.6-2.4c3.2-3.2 3.2-8 0-11.2l-2.8-2.8zm-197.6 0l-2.8 2.8c-3.2 3.2-3.2 8 0 11.2 1.6 1.6 3.6 2.4 5.6 2.4s4-.8 5.6-2.4l2.8-2.8c3.2-3.2 3.2-8 0-11.2s-8-3.2-11.2 0zm189.2-189.2l-2.8 2.8c-3.2 3.2-3.2 8 0 11.2 1.6 1.6 3.6 2.4 5.6 2.4s4-.8 5.6-2.4l2.8-2.8c3.2-3.2 3.2-8 0-11.2-3.2-3.2-8-3.2-11.2 0zm-82.4 62.4v-84.8c0-4.4-3.6-8-8-8s-8 3.6-8 8v84.8c-18.4 3.6-32 20-32 39.2 0 22 18 40 40 40s40-18 40-40c0-19.2-13.6-35.6-32-39.2zm-8 63.2c-13.2 0-24-10.8-24-24s10.8-24 24-24 24 10.8 24 24-10.8 24-24 24z"/><path d="M376 38.077l-28.4-28.4c-4-4-9.2-6-14.8-6-5.2 0-10 2.4-13.6 6l-5.6 5.6c-4 4-6 9.2-6 14.8 0 5.2 2.4 10 6 13.6l8.4 8.4-10 10c-32.8-32.4-78-52.4-128-52.4-101.6 0-184 82.4-184 184s82.4 184 184 184 184-82.4 184-184c0-46-16.8-87.6-44.8-120l10.4-10.4 8.4 8.4c4 4 8.8 6 14 6s10-2 14-6l5.2-5.2c4-3.6 6-8.8 6-14.4.8-5.6-1.6-10.4-5.2-14zm-24 155.6c0 92.8-75.2 168-168 168s-168-75.2-168-168 75.2-168 168-168 168 75.2 168 168zm12.8-138.8l-5.6 5.6c-1.6 1.6-4 1.6-5.6 0l-28.8-28.8c-.8-.8-.8-1.6-1.2-2.4 0-.8 0-2 1.2-2.8l6-6c.8-.8 1.6-.8 2.4-1.2.8 0 2 0 2.8 1.2l28.4 28.4.4.4c.8.4 1.2 1.6 1.2 2.4s-.4 2.4-1.2 3.2z"/></symbol><symbol viewBox="0 0 640 512" id="volume-high" xmlns="http://www.w3.org/2000/svg"><!--! Font Awesome Free 6.0.0 by @fontawesome - https://fontawesome.com License - https://fontawesome.com/license/free (Icons: CC BY 4.0, Fonts: SIL OFL 1.1, Code: MIT License) Copyright 2022 Fonticons, Inc.--><path d="M412.6 182c-10.28-8.334-25.41-6.867-33.75 3.402-8.406 10.24-6.906 25.35 3.375 33.74C393.5 228.4 400 241.8 400 255.1c0 14.17-6.5 27.59-17.81 36.83-10.28 8.396-11.78 23.5-3.375 33.74 4.719 5.806 11.62 8.802 18.56 8.802 5.344 0 10.75-1.779 15.19-5.399C435.1 311.5 448 284.6 448 255.1s-12.9-54.7-35.4-73.1zm60.5-73.8c-10.22-8.334-25.34-6.898-33.78 3.34-8.406 10.24-6.906 25.35 3.344 33.74C476.6 172.1 496 213.3 496 255.1s-19.44 82.1-53.31 110.7c-10.25 8.396-11.75 23.5-3.344 33.74a23.962 23.962 0 0018.56 8.771c5.375 0 10.75-1.779 15.22-5.431C518.2 366.9 544 313 544 255.1S518.2 145 473.1 108.2zm61.3-74.8c-10.22-8.334-25.34-6.867-33.78 3.34-8.406 10.24-6.906 25.35 3.344 33.74C559.9 116.3 592 183.9 592 255.1s-32.09 139.7-88.06 185.5c-10.25 8.396-11.75 23.5-3.344 33.74C505.3 481 512.2 484 519.2 484c5.375 0 10.75-1.779 15.22-5.431C601.5 423.6 640 342.5 640 255.1S601.5 88.34 534.4 33.4zm-233.2 1.58c-11.5-5.181-25.01-3.076-34.43 5.29L131.8 160.1H48c-26.51 0-48 21.48-48 47.96v95.92c0 26.48 21.49 47.96 48 47.96h83.84l134.9 119.8A32.167 32.167 0 00288 479.8c4.438 0 8.959-.931 13.16-2.835A31.81 31.81 0 00320 447.9V64.12c0-12.57-7.3-23.99-18.8-29.14z"/></symbol><symbol viewBox="0 0 576 512" id="volume-xmark" xmlns="http://www.w3.org/2000/svg"><!--! Font Awesome Free 6.0.0 by @fontawesome - https://fontawesome.com License - https://fontawesome.com/license/free (Icons: CC BY 4.0, Fonts: SIL OFL 1.1, Code: MIT License) Copyright 2022 Fonticons, Inc.--><path d="M301.2 34.85c-11.5-5.188-25.02-3.122-34.44 5.253L131.8 160H48c-26.51 0-48 21.49-48 47.1v95.1c0 26.51 21.49 47.1 48 47.1h83.84l134.9 119.9a32.023 32.023 0 0021.26 8.094 31.96 31.96 0 0013.17-2.844c11.5-5.156 18.82-16.56 18.82-29.16V64c-.89-12.59-7.29-24-18.79-29.15zM513.9 255.1l47.03-47.03c9.375-9.375 9.375-24.56 0-33.94s-24.56-9.375-33.94 0L480 222.1 432.1 175c-9.375-9.375-24.56-9.375-33.94 0s-9.375 24.56 0 33.94l47.03 47.03L398.16 303c-9.375 9.375-9.375 24.56 0 33.94 9.373 9.373 24.56 9.381 33.94 0L480 289.9l47.03 47.03c9.373 9.373 24.56 9.381 33.94 0 9.375-9.375 9.375-24.56 0-33.94L513.9 255.1z"/></symbol></svg>